<svg id="Layer_1" data-name="Layer 1" xmlns="http://www.w3.org/2000/svg" viewBox="0 0 747.02 630.46"><defs><style>.cls-1{fill:#00a99d;}.cls-2{fill:#057f73;}</style></defs><title>Guardian-park-Homes-Limited</title><path class="cls-1" d="M154.79,454.89H142.54a43.45,43.45,0,0,1-1.27-7.62c-4.29,5.78-11.83,8.91-22.57,8.91-22.42,0-34.95-16.95-34.95-38.95,0-23.23,13.51-40.72,37.86-40.72,19.88,0,31.58,11.22,33.46,24.39H138.36c-1.59-5.17-5.67-11.29-17-11.29-15.86,0-20.39,13.27-20.39,26.89,0,13.29,5.18,26.38,20.49,26.38,14.29,0,16.92-9.91,16.92-16.82v-.7h-17v-13.7h33.33Z"/><path class="cls-1" d="M187.2,377.63v46c0,14.83,7.62,19.22,16,19.22,9.56,0,15.56-5.19,15.56-19.22v-46h16.72v45.21c0,26.41-15.46,33.14-32.5,33.14-17.44,0-32.46-7-32.46-32.83V377.63Z"/><path class="cls-1" d="M266.12,437l-6,17.85H243.67l26.23-77.26h21l27.36,77.26H300.69L294.34,437Zm24.63-13.69c-5.49-16.3-9-26.72-10.85-33.67h-.11c-1.91,7.62-5.77,19.74-10.16,33.67Z"/><path class="cls-1" d="M344.51,424v30.92H328.18V377.63h33.95c16.85,0,25.91,9.28,25.91,21.21,0,10.37-5.64,16-11.22,18.28,3.82,1.41,9.6,5.4,9.6,19.23v3.81c0,5.2,0,11.11,1.1,14.73H371.69c-1.36-3.36-1.61-9.14-1.61-17.35v-1.13c0-8.45-2.14-12.44-14.59-12.44Zm0-13.3h14c9.15,0,12.68-3.48,12.68-9.94,0-6.28-4.11-9.8-12.28-9.8h-14.4Z"/><path class="cls-1" d="M402.93,377.63h30.63c22.51,0,37.21,14.82,37.21,37.66,0,22.53-14.27,39.6-37.91,39.6H402.93Zm16.7,63.76h12.53c14.81,0,21.36-11,21.36-26.06,0-12.62-6.13-24.21-21.26-24.21H419.63Z"/><path class="cls-1" d="M502.12,377.63v77.26H485.41V377.63Z"/><path class="cls-1" d="M535,437l-6,17.85H512.52l26.24-77.26h21l27.37,77.26H569.55L563.2,437Zm24.63-13.69c-5.49-16.3-9-26.72-10.85-33.67h-.11c-1.9,7.62-5.76,19.74-10.16,33.67Z"/><path class="cls-1" d="M597,454.89V377.63h20.71c9.65,17.35,27.49,48.63,31,57.05H649c-.87-8.06-.86-21.48-.86-34.15v-22.9h15.14v77.26H643.63c-8.3-15.1-28.06-51-31.89-60h-.21c.56,6.76.74,22.63.74,36.46v23.5Z"/><path class="cls-2" d="M126.42,479.51h20.46c10.51,0,17.64,5.91,17.64,15.31,0,10.75-8.13,15.68-17.89,15.68h-9.51V529h-10.7ZM137.12,502h8.16c4.95,0,8.45-1.91,8.45-7s-3.69-7-8.22-7h-8.39Z"/><path class="cls-2" d="M181.89,517.54,178,529H167.52l16.79-49.46h13.43L215.27,529H204L200,517.54Zm15.76-8.76c-3.51-10.44-5.74-17.11-6.94-21.55h-.07c-1.22,4.87-3.69,12.63-6.5,21.55Z"/><path class="cls-2" d="M236.37,509.17V529H225.92V479.51h21.73c10.79,0,16.59,5.94,16.59,13.58,0,6.63-3.61,10.23-7.19,11.7,2.45.9,6.15,3.45,6.15,12.31v2.44c0,3.33,0,7.11.71,9.43H253.77c-.87-2.15-1-5.86-1-11.11v-.72c0-5.41-1.37-8-9.34-8Zm0-8.51h9c5.86,0,8.12-2.23,8.12-6.36s-2.63-6.28-7.86-6.28h-9.22Z"/><path class="cls-2" d="M278.07,479.51h10.57v22.07c3.26-3.81,13.44-15,19.69-22.07h12.8l-19.87,20.56,20.6,28.9H309l-15.18-22-5.21,5v17H278.07Z"/><path class="cls-2" d="M352.53,479.51h10.69V498.8h19.9V479.51h10.7V529h-10.7v-21.4h-19.9V529H352.53Z"/><path class="cls-2" d="M455.45,504.07c0,13.76-8.27,25.62-24.33,25.62-15.52,0-23.65-11.28-23.65-25.45,0-14.4,9-25.45,24.34-25.45C446.28,478.79,455.45,488.93,455.45,504.07ZM418.52,504c0,9.66,4.23,17,13,17,9.51,0,12.88-8,12.88-16.78,0-9.35-3.83-16.71-13-16.71C422.42,487.49,418.52,494.39,418.52,504Z"/><path class="cls-2" d="M510.55,510.42c0-8.44.14-17.9.35-23.5h-.34c-2.32,10.1-7.27,26.57-12,42.05h-9.11c-3.6-13.53-8.72-32.3-10.89-42.18h-.33c.42,5.8.63,16,.63,24.46V529H469.1V479.51H485c3.85,12.92,8.17,29.13,9.66,36.51h.08c1.21-6.51,6.65-23.84,10.77-36.51h15.34V529H510.55Z"/><path class="cls-2" d="M571.06,507.64H547.41V520.2H573.5L572.24,529H537V479.51H572.1v8.76H547.41v10.6h23.65Z"/><path class="cls-2" d="M593.56,514.47c1.12,5,4.69,7.15,10.41,7.15s8.15-2.26,8.15-5.88c0-4-2.38-5.77-10.84-7.74-13.46-3.16-16.79-8.06-16.79-14.73,0-8.63,6.45-14.48,18.16-14.48,13.13,0,18.36,7.06,19.07,14.29H611c-.52-3-2.2-6.35-8.58-6.35-4.34,0-7,1.8-7,5.31s2.1,4.83,10.09,6.69c14.39,3.39,17.54,8.74,17.54,15.71,0,9-6.83,15.23-19.91,15.23-12.55,0-19.16-6.18-20.35-15.2Z"/><path class="cls-2" d="M238.73,554.61h7v41.46H270.3l-.93,6H238.73Z"/><path class="cls-2" d="M286.74,554.61V602h-7V554.61Z"/><path class="cls-2" d="M342.48,582.28c0-8.67.1-17.65.3-22.71h-.27c-2.06,8.06-9.18,27.56-14.45,42.46h-6.23c-4-12.3-11.35-34.2-13.48-42.56h-.22c.37,5.5.54,15.88.54,24V602h-6.58V554.61h10.5c5.06,14.27,11.18,32.61,12.77,38.84h.11c1.12-4.88,8.42-24.92,13.68-38.84h10.18V602h-6.85Z"/><path class="cls-2" d="M371.67,554.61V602h-7V554.61Z"/><path class="cls-2" d="M396.81,560.56H381.66v-5.95H419v5.95H403.88V602h-7.07Z"/><path class="cls-2" d="M458.77,580.19H435.35v15.88h25.74l-.89,6H428.47V554.61h31.4v5.95H435.35v13.67h23.42Z"/><path class="cls-2" d="M472.17,554.61h17.3c13.42,0,22.44,9.08,22.44,23.21S503.12,602,489.21,602h-17Zm7,41.52h9.52c10.77,0,15.83-7.76,15.83-18.2,0-9.06-4.63-17.43-15.8-17.43h-9.55Z"/><polygon class="cls-1" points="143.84 355.56 303.73 355.56 303.73 146.05 265.13 192 265.13 340.86 143.84 355.56"/><polygon class="cls-1" points="336.81 355.56 336.81 210.38 314.75 186.49 314.75 122.16 357.02 57.84 357.02 355.56 336.81 355.56"/><polygon class="cls-2" points="369.89 355.56 369.89 28.43 426.86 89.08 426.86 166.27 404.8 192 404.8 355.56 369.89 355.56"/><polygon class="cls-2" points="445.24 146.05 445.24 355.56 606.96 355.56 493.02 344.54 493.02 192 445.24 146.05"/></svg>